# Blender v2.79 (sub 0) OBJ File: ''
# www.blender.org
o crate_Cube_Cube.000
v -0.949088 -1.000000 -0.949089
v 0.949088 -1.000000 -0.949089
v 0.740949 -1.000000 -0.740949
v -0.740949 -1.000000 -0.740949
v 1.000000 -0.949088 -0.949089
v 1.000000 0.949089 -0.949088
v 0.991625 0.719726 -0.719726
v 0.991625 -0.719726 -0.719726
v -1.000000 0.949089 -0.949088
v -1.000000 -0.949088 -0.949089
v -1.000000 -0.740949 -0.740949
v -1.000000 0.740949 -0.740949
v 0.949088 1.000000 -0.949088
v -0.949088 1.000000 -0.949088
v -0.740949 1.000000 -0.740949
v 0.740949 1.000000 -0.740949
v -0.949088 0.949088 1.000000
v -0.949088 -0.949089 1.000000
v -0.740949 -0.740949 1.000000
v -0.740949 0.740949 1.000000
v -0.949088 1.000000 0.949089
v 0.949088 1.000000 0.949089
v 0.740949 1.000000 0.740949
v -0.740949 1.000000 0.740949
v -1.000000 0.949088 0.949089
v -1.000000 0.740949 0.740949
v -0.867713 -0.716613 0.716613
v -0.867713 0.716613 0.716613
v -0.867713 0.716613 -0.716613
v -0.867713 -0.716613 -0.716613
v -0.949088 0.949089 -1.000000
v 0.949088 0.949089 -1.000000
v 0.740949 0.740949 -1.000000
v -0.740949 0.740949 -1.000000
v -0.716613 -0.716613 -0.867713
v -0.716613 0.716613 -0.867712
v 0.716613 0.716613 -0.867712
v 0.716613 -0.716613 -0.867713
v 0.867713 -0.716613 -0.716613
v 0.867713 0.716613 -0.716613
v 0.867713 0.716613 0.716613
v 0.867713 -0.716613 0.716613
v 0.949088 -0.949089 1.000000
v 0.949088 0.949088 1.000000
v 0.740949 0.740949 1.000000
v 0.740949 -0.740949 1.000000
v 1.000000 -0.949089 0.949088
v 0.991625 -0.719726 0.719726
v 0.949088 -1.000000 0.949088
v -0.949088 -1.000000 0.949088
v -0.740949 -1.000000 0.740949
v 0.740949 -1.000000 0.740949
v -1.000000 -0.949089 0.949088
v -1.000000 -0.740949 0.740949
v 1.000000 0.949088 0.949089
v 0.991625 0.719726 0.719726
v 0.949088 -0.949088 -1.000000
v 0.740949 -0.740949 -1.000000
v 0.716613 0.867713 -0.716613
v -0.716613 0.867713 -0.716613
v -0.716613 0.867712 0.716613
v 0.716613 0.867712 0.716613
v -0.949088 -0.949088 -1.000000
v -0.740949 -0.740949 -1.000000
v 0.716613 -0.716613 0.867712
v 0.716613 0.716613 0.867713
v -0.716613 0.716613 0.867713
v -0.716613 -0.716613 0.867712
v -0.716613 -0.867712 -0.716613
v 0.716613 -0.867712 -0.716613
v 0.716613 -0.867713 0.716613
v -0.716613 -0.867713 0.716613
v 0.716613 0.716613 -0.867712
v -0.716613 0.716613 -0.867712
v -0.740949 0.740949 -1.000000
v 0.740949 0.740949 -1.000000
v -0.716613 -0.867712 -0.716613
v -0.716613 -0.867713 0.716613
v -0.740949 -1.000000 0.740949
v -0.740949 -1.000000 -0.740949
v -0.716613 -0.867713 0.716613
v 0.716613 -0.867713 0.716613
v 0.740949 -1.000000 0.740949
v -0.740949 -1.000000 0.740949
v 0.740949 -0.740949 1.000000
v 0.740949 0.740949 1.000000
v 0.716613 0.716613 0.867713
v 0.716613 -0.716613 0.867712
v 0.740949 0.740949 -1.000000
v 0.740949 -0.740949 -1.000000
v 0.716613 -0.716613 -0.867713
v 0.716613 0.716613 -0.867712
v -0.740949 -1.000000 -0.740949
v 0.740949 -1.000000 -0.740949
v 0.716613 -0.867712 -0.716613
v -0.716613 -0.867712 -0.716613
v 0.984521 -0.984522 0.984521
v 0.984521 0.984521 0.984522
v -0.984522 0.984522 -0.984521
v -0.984521 0.984521 0.984522
v 0.867713 0.716613 -0.716613
v 0.867713 -0.716613 -0.716613
v 0.991625 -0.719726 -0.719726
v 0.991625 0.719726 -0.719726
v 0.867713 -0.716613 -0.716613
v 0.867713 -0.716613 0.716613
v 0.991625 -0.719726 0.719726
v 0.991625 -0.719726 -0.719726
v 0.716613 0.867713 -0.716613
v 0.716613 0.867712 0.716613
v 0.740949 1.000000 0.740949
v 0.740949 1.000000 -0.740949
v 0.984521 -0.984521 -0.984522
v 0.984521 0.984522 -0.984521
v -0.867713 0.716613 -0.716613
v -0.867713 0.716613 0.716613
v -1.000000 0.740949 0.740949
v -1.000000 0.740949 -0.740949
v -0.716613 0.867713 -0.716613
v 0.716613 0.867713 -0.716613
v 0.740949 1.000000 -0.740949
v -0.740949 1.000000 -0.740949
v -1.000000 -0.740949 0.740949
v -1.000000 0.740949 0.740949
v -0.867713 0.716613 0.716613
v -0.867713 -0.716613 0.716613
v -1.000000 -0.740949 -0.740949
v -1.000000 -0.740949 0.740949
v -0.867713 -0.716613 0.716613
v -0.867713 -0.716613 -0.716613
v -0.984521 -0.984522 0.984521
v 0.740949 0.740949 1.000000
v -0.740949 0.740949 1.000000
v -0.716613 0.716613 0.867713
v 0.716613 0.716613 0.867713
v 0.867713 0.716613 0.716613
v 0.867713 0.716613 -0.716613
v 0.991625 0.719726 -0.719726
v 0.991625 0.719726 0.719726
v 0.991625 0.719726 0.719726
v 0.991625 -0.719726 0.719726
v 0.867713 -0.716613 0.716613
v 0.867713 0.716613 0.716613
v 0.716613 -0.716613 0.867712
v -0.716613 -0.716613 0.867712
v -0.740949 -0.740949 1.000000
v 0.740949 -0.740949 1.000000
v 0.740949 -1.000000 -0.740949
v 0.740949 -1.000000 0.740949
v 0.716613 -0.867713 0.716613
v 0.716613 -0.867712 -0.716613
v -0.740949 1.000000 -0.740949
v -0.740949 1.000000 0.740949
v -0.716613 0.867712 0.716613
v -0.716613 0.867713 -0.716613
v -0.716613 -0.716613 0.867712
v -0.716613 0.716613 0.867713
v -0.740949 0.740949 1.000000
v -0.740949 -0.740949 1.000000
v -0.716613 -0.716613 -0.867713
v 0.716613 -0.716613 -0.867713
v 0.740949 -0.740949 -1.000000
v -0.740949 -0.740949 -1.000000
v -0.984521 -0.984521 -0.984522
v -0.867713 -0.716613 -0.716613
v -0.867713 0.716613 -0.716613
v -1.000000 0.740949 -0.740949
v -1.000000 -0.740949 -0.740949
v -0.716613 0.716613 -0.867712
v -0.716613 -0.716613 -0.867713
v -0.740949 -0.740949 -1.000000
v -0.740949 0.740949 -1.000000
v -0.740949 1.000000 0.740949
v 0.740949 1.000000 0.740949
v 0.716613 0.867712 0.716613
v -0.716613 0.867712 0.716613
vt 0.853342 0.560796
vt 0.586562 0.560796
vt 0.615815 0.531779
vt 0.824089 0.531779
vt 0.277399 0.010516
vt 0.277399 0.275140
vt 0.245161 0.243165
vt 0.245161 0.042491
vt 0.010602 0.296172
vt 0.277399 0.296172
vt 0.248144 0.325189
vt 0.039857 0.325189
vt 0.853391 0.275140
vt 0.586612 0.275140
vt 0.615865 0.246123
vt 0.824138 0.246123
vt 0.565358 0.296172
vt 0.565358 0.560796
vt 0.536105 0.531779
vt 0.536105 0.325189
vt 0.586612 0.010516
vt 0.853391 0.010516
vt 0.824138 0.039533
vt 0.615865 0.039533
vt 0.010602 0.560796
vt 0.039857 0.531779
vt 0.005622 0.776694
vt 0.005622 0.576888
vt 0.207068 0.576888
vt 0.207068 0.776694
vt 0.298629 0.010516
vt 0.565408 0.010516
vt 0.536155 0.039533
vt 0.327881 0.039533
vt 0.431003 0.776694
vt 0.431003 0.576888
vt 0.632436 0.576888
vt 0.632436 0.776694
vt 0.419758 0.576888
vt 0.419758 0.776694
vt 0.218312 0.776694
vt 0.218312 0.576888
vt 0.298579 0.560796
vt 0.298579 0.296172
vt 0.327832 0.325189
vt 0.327832 0.531779
vt 0.010602 0.010516
vt 0.042840 0.042491
vt 0.586562 0.296172
vt 0.853342 0.296172
vt 0.824089 0.325189
vt 0.615815 0.325189
vt 0.277399 0.560796
vt 0.248144 0.531779
vt 0.010602 0.275140
vt 0.042840 0.243165
vt 0.565408 0.275140
vt 0.536155 0.246123
vt 0.419732 0.987652
vt 0.218299 0.987652
vt 0.218299 0.787846
vt 0.419732 0.787846
vt 0.298629 0.275140
vt 0.327881 0.246123
vt 0.643680 0.776694
vt 0.643680 0.576888
vt 0.845113 0.576888
vt 0.845113 0.776694
vt 0.005622 0.787846
vt 0.207055 0.787846
vt 0.207055 0.987652
vt 0.005622 0.987652
vt 0.490652 0.991070
vt 0.490652 0.791277
vt 0.493964 0.791133
vt 0.493964 0.991211
vt 0.994378 0.362538
vt 0.994378 0.562343
vt 0.991066 0.562486
vt 0.991066 0.362395
vt 0.580166 0.990993
vt 0.580166 0.791200
vt 0.583477 0.791059
vt 0.583477 0.991137
vt 0.919420 0.362395
vt 0.919420 0.562486
vt 0.916108 0.562343
vt 0.916108 0.362538
vt 0.932616 0.008826
vt 0.932616 0.208917
vt 0.929305 0.208774
vt 0.929304 0.008969
vt 0.446258 0.991137
vt 0.446258 0.791059
vt 0.449570 0.791200
vt 0.449570 0.990993
vt 0.293624 0.565736
vt 0.293624 0.291232
vt 0.005622 0.280080
vt 0.005622 0.005576
vt 0.581607 0.280079
vt 0.581607 0.005576
vt 0.005622 0.565736
vt 0.005622 0.291232
vt 0.718399 0.788280
vt 0.718399 0.988086
vt 0.715090 0.988228
vt 0.715090 0.788137
vt 0.643680 0.988086
vt 0.643680 0.788280
vt 0.646990 0.788137
vt 0.646990 0.988228
vt 0.918060 0.008969
vt 0.918060 0.208774
vt 0.914748 0.208917
vt 0.914748 0.008826
vt 0.282379 0.005576
vt 0.581607 0.565736
vt 0.581607 0.291232
vt 0.282379 0.280080
vt 0.570363 0.005576
vt 0.570363 0.280080
vt 0.856357 0.780086
vt 0.856357 0.580281
vt 0.859670 0.580138
vt 0.859670 0.780229
vt 0.550328 0.990993
vt 0.550328 0.791200
vt 0.553640 0.791059
vt 0.553640 0.991137
vt 0.872904 0.226569
vt 0.872904 0.426660
vt 0.869591 0.426517
vt 0.869591 0.226712
vt 0.884909 0.208917
vt 0.884909 0.008826
vt 0.888222 0.008969
vt 0.888222 0.208774
vt 0.570363 0.291232
vt 0.570363 0.565736
vt 0.282379 0.565736
vt 0.523802 0.791059
vt 0.523802 0.991137
vt 0.520490 0.990993
vt 0.520490 0.791200
vt 0.729644 0.988086
vt 0.729644 0.788280
vt 0.732953 0.788137
vt 0.732953 0.988228
vt 0.675644 0.788137
vt 0.675644 0.988228
vt 0.672335 0.988086
vt 0.672335 0.788280
vt 0.858347 0.005576
vt 0.479408 0.791200
vt 0.479408 0.990992
vt 0.476096 0.991137
vt 0.476096 0.791059
vt 0.858347 0.280079
vt 0.293624 0.005576
vt 0.962454 0.008826
vt 0.962454 0.208917
vt 0.959143 0.208774
vt 0.959142 0.008969
vt 0.858346 0.291232
vt 0.919420 0.580138
vt 0.919420 0.780229
vt 0.916108 0.780086
vt 0.916108 0.580281
vt 0.964540 0.362538
vt 0.964540 0.562343
vt 0.961228 0.562486
vt 0.961228 0.362395
vt 0.610004 0.990992
vt 0.610004 0.791200
vt 0.613315 0.791059
vt 0.613315 0.991137
vt 0.293624 0.280080
vt 0.858346 0.565736
vt 0.282379 0.291232
vt 0.886233 0.780086
vt 0.886233 0.580281
vt 0.889546 0.580138
vt 0.889546 0.780229
vt 0.964540 0.580281
vt 0.964540 0.780086
vt 0.961228 0.780229
vt 0.961228 0.580138
vt 0.979096 0.580175
vt 0.979096 0.780253
vt 0.975784 0.780112
vt 0.975784 0.580319
vn -0.1555 -0.9755 -0.1555
vn 0.1555 -0.9755 -0.1555
vn 0.0000 -1.0000 -0.0000
vn 0.9770 -0.1509 -0.1509
vn 0.9770 0.1509 -0.1509
vn 0.9997 -0.0183 0.0183
vn 0.9997 0.0183 0.0183
vn -0.9755 0.1555 -0.1555
vn -0.9755 -0.1555 -0.1555
vn -1.0000 -0.0000 0.0000
vn 0.1555 0.9755 -0.1555
vn -0.1555 0.9755 -0.1555
vn -0.0000 1.0000 0.0000
vn -0.1555 0.1555 0.9755
vn -0.1555 -0.1555 0.9755
vn -0.0000 -0.0000 1.0000
vn -0.1555 0.9755 0.1555
vn 0.1555 0.9755 0.1555
vn -0.9755 0.1555 0.1555
vn -0.1555 0.1555 -0.9755
vn 0.1555 0.1555 -0.9755
vn 0.0000 0.0000 -1.0000
vn 1.0000 -0.0000 0.0000
vn 0.1555 -0.1555 0.9755
vn 0.1555 0.1555 0.9755
vn 0.9770 -0.1509 0.1509
vn 0.9997 0.0183 -0.0183
vn 0.1555 -0.9755 0.1555
vn -0.1555 -0.9755 0.1555
vn -0.9755 -0.1555 0.1555
vn 0.9770 0.1509 0.1509
vn 0.9997 -0.0183 -0.0183
vn 0.1555 -0.1555 -0.9755
vn -0.1555 -0.1555 -0.9755
vn 0.0000 -0.9835 -0.1809
vn 0.9835 -0.1809 -0.0000
vn 0.0000 -0.1809 -0.9835
vn -0.9835 -0.0000 0.1809
vn -0.9835 0.0000 -0.1809
vn 0.0000 -0.1809 0.9835
vn 0.5773 -0.5774 0.5773
vn 0.5773 0.5773 0.5774
vn -0.5774 0.5774 -0.5773
vn -0.5773 0.5773 0.5774
vn 0.0251 -0.0000 0.9997
vn 0.0251 0.9997 0.0000
vn -0.9835 0.1809 0.0000
vn 0.5773 -0.5773 -0.5774
vn 0.5773 0.5774 -0.5773
vn -0.1809 -0.9835 -0.0000
vn 0.0000 0.1809 0.9835
vn -0.1809 0.0000 -0.9835
vn -0.1809 0.9835 0.0000
vn -0.5773 -0.5774 0.5773
vn 0.0000 -0.9835 0.1809
vn 0.0251 -0.9997 -0.0000
vn 0.0251 0.0000 -0.9997
vn 0.0000 0.9835 0.1809
vn -0.9835 -0.1809 -0.0000
vn 0.9835 0.1809 0.0000
vn 0.9835 -0.0000 0.1809
vn 0.0000 0.9835 -0.1809
vn -0.5773 -0.5773 -0.5774
vn -0.1809 -0.0000 0.9835
vn 0.9835 0.0000 -0.1809
vn 0.0000 0.1809 -0.9835
s 1
f 1/1/1 2/2/2 3/3/3 4/4/3
f 5/5/4 6/6/5 7/7/6 8/8/7
f 9/9/8 10/10/9 11/11/10 12/12/10
f 13/13/11 14/14/12 15/15/13 16/16/13
f 17/17/14 18/18/15 19/19/16 20/20/16
f 21/21/17 22/22/18 23/23/13 24/24/13
f 25/25/19 9/9/8 12/12/10 26/26/10
f 27/27/10 28/28/10 29/29/10 30/30/10
f 31/31/20 32/32/21 33/33/22 34/34/22
f 35/35/22 36/36/22 37/37/22 38/38/22
f 39/39/23 40/40/23 41/41/23 42/42/23
f 43/43/24 44/44/25 45/45/16 46/46/16
f 47/47/26 5/5/4 8/8/7 48/48/27
f 49/49/28 50/50/29 51/51/3 52/52/3
f 14/14/12 21/21/17 24/24/13 15/15/13
f 44/44/25 17/17/14 20/20/16 45/45/16
f 53/53/30 25/25/19 26/26/10 54/54/10
f 6/6/5 55/55/31 56/56/32 7/7/6
f 32/32/21 57/57/33 58/58/22 33/33/22
f 22/22/18 13/13/11 16/16/13 23/23/13
f 55/55/31 47/47/26 48/48/27 56/56/32
f 18/18/15 43/43/24 46/46/16 19/19/16
f 59/59/13 60/60/13 61/61/13 62/62/13
f 57/57/33 63/63/34 64/64/22 58/58/22
f 63/63/34 31/31/20 34/34/22 64/64/22
f 10/10/9 53/53/30 54/54/10 11/11/10
f 2/2/2 49/49/28 52/52/3 3/3/3
f 65/65/16 66/66/16 67/67/16 68/68/16
f 69/69/3 70/70/3 71/71/3 72/72/3
f 73/73/35 74/74/35 75/75/35 76/76/35
f 77/77/36 78/78/36 79/79/36 80/80/36
f 81/81/37 82/82/37 83/83/37 84/84/37
f 85/85/38 86/86/38 87/87/38 88/88/38
f 89/89/39 90/90/39 91/91/39 92/92/39
f 93/93/40 94/94/40 95/95/40 96/96/40
f 44/44/25 43/43/24 97/97/41 98/98/42
f 98/99/42 97/100/41 47/47/26 55/55/31
f 21/21/17 14/14/12 99/101/43 100/102/44
f 100/103/44 99/104/43 9/9/8 25/25/19
f 101/105/45 102/106/45 103/107/45 104/108/45
f 105/109/46 106/110/46 107/111/46 108/112/46
f 109/113/47 110/114/47 111/115/47 112/116/47
f 5/5/4 47/47/26 97/100/41 113/117/48
f 113/118/48 97/119/41 49/49/28 2/2/2
f 6/6/5 5/5/4 113/117/48 114/120/49
f 114/121/49 113/122/48 57/57/33 32/32/21
f 115/123/50 116/124/50 117/125/50 118/126/50
f 119/127/51 120/128/51 121/129/51 122/130/51
f 123/131/52 124/132/52 125/133/52 126/134/52
f 127/135/53 128/136/53 129/137/53 130/138/53
f 18/18/15 17/17/14 100/139/44 131/140/54
f 131/141/54 100/103/44 25/25/19 53/53/30
f 132/142/55 133/143/55 134/144/55 135/145/55
f 136/146/56 137/147/56 138/148/56 139/149/56
f 140/150/57 141/151/57 142/152/57 143/153/57
f 17/17/14 44/44/25 98/98/42 100/139/44
f 100/102/44 98/154/42 22/22/18 21/21/17
f 144/155/58 145/156/58 146/157/58 147/158/58
f 14/14/12 13/13/11 114/159/49 99/101/43
f 99/160/43 114/121/49 32/32/21 31/31/20
f 148/161/59 149/162/59 150/163/59 151/164/59
f 50/50/29 49/49/28 97/119/41 131/165/54
f 131/140/54 97/97/41 43/43/24 18/18/15
f 152/166/60 153/167/60 154/168/60 155/169/60
f 156/170/61 157/171/61 158/172/61 159/173/61
f 160/174/62 161/175/62 162/176/62 163/177/62
f 63/63/34 57/57/33 113/122/48 164/178/63
f 164/179/63 113/118/48 2/2/2 1/1/1
f 53/53/30 10/10/9 164/180/63 131/141/54
f 131/165/54 164/179/63 1/1/1 50/50/29
f 165/181/64 166/182/64 167/183/64 168/184/64
f 169/185/65 170/186/65 171/187/65 172/188/65
f 13/13/11 22/22/18 98/154/42 114/159/49
f 114/120/49 98/99/42 55/55/31 6/6/5
f 173/189/66 174/190/66 175/191/66 176/192/66
f 31/31/20 63/63/34 164/178/63 99/160/43
f 99/104/43 164/180/63 10/10/9 9/9/8
f 50/50/29 1/1/1 4/4/3 51/51/3
